<svg xmlns="http://www.w3.org/2000/svg" xmlns:xlink="http://www.w3.org/1999/xlink" id="Layer_1" x="0px" y="0px" viewBox="0 0 200 80" style="enable-background:new 0 0 200 80;" xml:space="preserve">
<style type="text/css">
	.st0{fill:#1E516C;}
</style>
<g>
	<g>
		<path class="st0" d="M26.41,42c2.34,9.69,6.76,18.02,14.09,24.52c7.43,6.6,15.94,10.35,26.28,8.51    c-7.88,6.33-22.21,7.22-32.43-0.93C23.75,65.63,21.79,51.31,26.41,42z"></path>
		<path class="st0" d="M29.5,72.06c-10.9-1.9-19.25-11.33-19.96-21.64c-0.88-12.9,7.56-21.94,15.11-24.43    c-4.58,7.52-7,15.54-6.46,24.23C18.74,58.94,21.77,66.59,29.5,72.06z"></path>
		<path class="st0" d="M34.37,14.86C18.48,18.13,6.71,30.4,7.4,44.25C3.46,39.3,2.92,28.48,8.83,20.98    C14.88,13.3,26.05,10.51,34.37,14.86z"></path>
		<path class="st0" d="M13.43,13.54c2.51-7.66,9.71-12.36,18.41-11.89c7.13,0.38,14.21,6.15,15.66,12.9    C36.24,7.23,24.93,4.22,13.43,13.54z"></path>
		<path class="st0" d="M56.61,22.73C55.06,11.96,50.73,3.47,38.87,1.05C44.6-1.42,51.71,0.6,55.84,5.77    C59.67,10.59,60.03,18.07,56.61,22.73z"></path>
		<path class="st0" d="M56.69,33.67c5.97-6.19,9.21-12.81,5.44-21.18c4.64,2.72,5.86,7.95,4.88,12.47    C65.98,29.75,61.48,33.53,56.69,33.67z"></path>
		<path class="st0" d="M64.4,36.01c-0.5,3.95-3.09,6.81-6.53,7.53c-3.77,0.79-7.11-0.43-8.89-3.34C54.82,41.7,60.16,41.4,64.4,36.01    z"></path>
		<path class="st0" d="M39.13,38.14c1.07,3.66,2.88,6.3,6.56,7.33c-2.11,0.73-3.8,0.33-5.36-1.18    C38.77,42.76,38.32,40.81,39.13,38.14z"></path>
	</g>
	<g>
		<path class="st0" d="M79.8,24.25c0-0.41,0.15-0.76,0.44-1.05c0.29-0.29,0.64-0.44,1.05-0.44c0.41,0,0.76,0.15,1.05,0.44    c0.29,0.29,0.44,0.64,0.44,1.05v17.83c0,2.06,0.72,3.81,2.17,5.26c1.45,1.45,3.2,2.17,5.26,2.17c2.06,0,3.81-0.72,5.26-2.17    c1.45-1.45,2.17-3.2,2.17-5.26V24.25c0-0.41,0.15-0.76,0.44-1.05c0.29-0.29,0.64-0.44,1.05-0.44c0.41,0,0.76,0.15,1.05,0.44    c0.29,0.29,0.44,0.64,0.44,1.05v17.83c0,2.87-1.02,5.33-3.05,7.36c-2.03,2.03-4.48,3.05-7.36,3.05c-2.87,0-5.33-1.02-7.36-3.05    c-2.03-2.03-3.05-4.48-3.05-7.36V24.25z"></path>
		<path class="st0" d="M106.55,34.8c0.02-0.02,0.05-0.05,0.07-0.07c2.03-2.03,4.48-3.05,7.36-3.05c2.87,0,5.32,1.02,7.36,3.05    c2.03,2.03,3.05,4.48,3.05,7.36c0,2.87-1.02,5.33-3.05,7.36c-2.03,2.03-4.48,3.05-7.36,3.05c-2.87,0-5.33-1.02-7.36-3.05    c-2.03-2.03-3.05-4.48-3.05-7.36V24.21c0-0.41,0.15-0.76,0.44-1.05c0.29-0.29,0.64-0.44,1.05-0.44c0.41,0,0.76,0.15,1.05,0.44    c0.29,0.29,0.44,0.64,0.44,1.05V34.8z M113.98,49.51c2.06,0,3.81-0.72,5.26-2.17c1.45-1.45,2.17-3.2,2.17-5.26    c0-2.06-0.72-3.81-2.17-5.26c-1.45-1.45-3.2-2.17-5.26-2.17c-2.06,0-3.81,0.72-5.26,2.17c-1.45,1.45-2.17,3.2-2.17,5.26    c0,2.06,0.72,3.81,2.17,5.26C110.17,48.79,111.92,49.51,113.98,49.51z"></path>
		<path class="st0" d="M148.16,42.08c0,2.87-1.02,5.33-3.05,7.36c-2.03,2.03-4.48,3.05-7.36,3.05c-2.87,0-5.33-1.02-7.36-3.05    c-2.03-2.03-3.05-4.48-3.05-7.36c0-2.87,1.02-5.32,3.05-7.36c2.03-2.03,4.48-3.05,7.36-3.05c2.87,0,5.32,1.02,7.36,3.05    C147.15,36.76,148.16,39.21,148.16,42.08z M137.76,34.65c-2.06,0-3.81,0.72-5.26,2.17c-1.45,1.45-2.17,3.2-2.17,5.26    c0,2.06,0.72,3.81,2.17,5.26c1.45,1.45,3.2,2.17,5.26,2.17c2.06,0,3.81-0.72,5.26-2.17c1.45-1.45,2.17-3.2,2.17-5.26    c0-2.06-0.72-3.81-2.17-5.26C141.57,35.37,139.81,34.65,137.76,34.65z"></path>
		<path class="st0" d="M151.13,33.16c0-0.41,0.15-0.76,0.44-1.05c0.29-0.29,0.64-0.44,1.05-0.44c0.41,0,0.76,0.15,1.05,0.44    c0.29,0.29,0.44,0.64,0.44,1.05v1.63c2.08-2.08,4.56-3.12,7.43-3.12c1.45,0,2.78,0.25,3.99,0.74c0.22,0.09,0.43,0.22,0.61,0.39    c0.28,0.3,0.43,0.65,0.43,1.06c0,0.41-0.15,0.76-0.44,1.05c-0.29,0.29-0.64,0.44-1.05,0.44c-0.24,0-0.45-0.05-0.65-0.15    c-0.88-0.37-1.85-0.56-2.9-0.56c-2.06,0-3.81,0.72-5.26,2.17c-1.45,1.45-2.17,3.2-2.17,5.26V51c0,0.41-0.15,0.76-0.44,1.05    c-0.29,0.29-0.64,0.44-1.05,0.44c-0.41,0-0.76-0.15-1.05-0.44c-0.29-0.29-0.44-0.64-0.44-1.05V33.16z"></path>
		<path class="st0" d="M173.8,27.22c0,0.51-0.18,0.94-0.55,1.31c-0.37,0.37-0.8,0.55-1.31,0.55c-0.51,0-0.94-0.18-1.31-0.55    c-0.37-0.37-0.55-0.8-0.55-1.31c0-0.51,0.18-0.94,0.55-1.31c0.37-0.37,0.8-0.55,1.31-0.55c0.51,0,0.94,0.18,1.31,0.55    C173.61,26.27,173.8,26.71,173.8,27.22z M170.45,33.16c0-0.41,0.15-0.76,0.44-1.05c0.29-0.29,0.64-0.44,1.05-0.44    c0.41,0,0.76,0.15,1.05,0.44c0.29,0.29,0.44,0.64,0.44,1.05V51c0,0.41-0.15,0.76-0.44,1.05c-0.29,0.29-0.64,0.44-1.05,0.44    c-0.41,0-0.76-0.15-1.05-0.44c-0.29-0.29-0.44-0.64-0.44-1.05V33.16z"></path>
		<path class="st0" d="M194.04,47.39c0.41,0,0.76,0.15,1.05,0.44c0.29,0.29,0.44,0.64,0.44,1.05c0,0.41-0.15,0.77-0.46,1.1    c-1.92,1.67-4.18,2.51-6.78,2.51c-2.87,0-5.33-1.02-7.36-3.05c-2.03-2.03-3.05-4.48-3.05-7.36c0-2.87,1.02-5.32,3.05-7.36    c2.03-2.03,4.48-3.05,7.36-3.05c2.6,0,4.86,0.84,6.78,2.51c0.35,0.31,0.52,0.69,0.52,1.15c0,0.41-0.15,0.76-0.44,1.05    c-0.29,0.29-0.64,0.44-1.05,0.44c-0.36,0-0.68-0.11-0.95-0.33c-1.39-1.23-3.01-1.84-4.87-1.84c-2.06,0-3.81,0.72-5.26,2.17    c-1.45,1.45-2.17,3.2-2.17,5.26c0,2.06,0.72,3.81,2.17,5.26c1.45,1.45,3.2,2.17,5.26,2.17c1.86,0,3.47-0.61,4.85-1.82    C193.39,47.49,193.7,47.39,194.04,47.39z"></path>
	</g>
</g>
</svg>